<svg width="24" height="24" viewBox="0 0 24 24" fill="none" xmlns="http://www.w3.org/2000/svg">
<path fill-rule="evenodd" clip-rule="evenodd" d="M4.03438 20.9981C1.46998 20.9981 0.419412 19.1819 1.70258 16.9586L9.66714 3.16744C10.9503 0.944186 13.0495 0.944186 14.3327 3.16744L22.2972 16.9605C23.5785 19.1838 22.5279 21 19.9635 21L4.03438 20.9981Z" fill="#F4C348"/>
<path fill-rule="evenodd" clip-rule="evenodd" d="M12 16.125C12.6213 16.125 13.125 16.6287 13.125 17.25C13.125 17.8713 12.6213 18.375 12 18.375C11.3787 18.375 10.875 17.8713 10.875 17.25C10.875 16.6287 11.3787 16.125 12 16.125ZM12.0527 5.625C12.6449 5.625 13.1048 6.10888 13.0798 6.71061L12.7813 13.8731C12.7653 14.2587 12.465 14.5765 12.0882 14.6199L12 14.625C11.5858 14.625 11.2358 14.2832 11.2187 13.8731L10.9202 6.71061C10.8953 6.11104 11.3522 5.625 11.9473 5.625H12.0527Z" fill="#17171D"/>
</svg>
