<svg width="14" height="14" viewBox="0 0 14 14" fill="none" xmlns="http://www.w3.org/2000/svg">
  <rect x="1" y="1" width="12" height="12" rx="3" fill="#389E0D"/>
  <path fill-rule="evenodd" clip-rule="evenodd" d="M10.3486 4.93434C10.661 5.24676 10.661 5.75329 10.3486 6.06571L7.06571 9.34856C6.7533 9.66098 6.24676 9.66098 5.93434 9.34856L3.6515 7.06571C3.33908 6.7533 3.33908 6.24676 3.6515 5.93434L3.93434 5.6515C4.24676 5.33908 4.75329 5.33908 5.06571 5.6515L6.35861 6.94439C6.43671 7.0225 6.56335 7.0225 6.64145 6.94439L8.93434 4.6515C9.24676 4.33908 9.75329 4.33908 10.0657 4.6515L10.3486 4.93434Z" fill="#FAFAFA"/>
  <rect x="1" y="1" width="12" height="12" rx="3" stroke="#FAFAFA" stroke-width="2"/>
</svg>
