<svg width="16" height="15" viewBox="0 0 16 15" fill="none" xmlns="http://www.w3.org/2000/svg">
<path d="M7.12808 2.85118C7.52027 1.67271 7.71636 1.08347 8.07692 1.08347C8.43749 1.08347 8.63358 1.67271 9.02576 2.85118L9.52821 4.36101C9.748 5.02146 9.8579 5.35169 10.1198 5.54059C10.3818 5.72949 10.7298 5.72949 11.4259 5.72949H13.0158C14.3054 5.72949 14.9502 5.72949 15.0612 6.07768C15.1722 6.42587 14.6462 6.79895 13.5943 7.54512L12.3703 8.41338C11.7881 8.82638 11.497 9.03289 11.3944 9.34654C11.2917 9.6602 11.4044 9.99885 11.6298 10.6762L12.1039 12.1007C12.5018 13.2964 12.7008 13.8943 12.4095 14.11C12.1182 14.3257 11.6043 13.9612 10.5765 13.2321L9.23408 12.2798C8.67509 11.8833 8.39559 11.685 8.07692 11.685C7.75826 11.685 7.47876 11.8833 6.91977 12.2798L5.57739 13.2321C4.54954 13.9612 4.03561 14.3257 3.74435 14.11C3.45309 13.8943 3.65205 13.2964 4.04997 12.1007L4.52403 10.6762C4.74943 9.99885 4.86213 9.6602 4.75948 9.34654C4.65684 9.03289 4.36573 8.82639 3.78351 8.41338L2.55951 7.54512C1.50763 6.79895 0.981691 6.42587 1.09265 6.07768C1.2036 5.72949 1.84843 5.72949 3.13809 5.72949H4.72796C5.42402 5.72949 5.77205 5.72949 6.034 5.54059C6.29595 5.35169 6.40584 5.02146 6.62563 4.36101L7.12808 2.85118Z" fill-opacity="0.2" stroke-opacity="0.3" fill="currentColor" stroke="currentColor"/>
</svg>
