<svg viewBox="0 0 36 36" fill="none" xmlns="http://www.w3.org/2000/svg">
<path d="M16.1024 11.7024C16.8868 9.34547 17.279 8.16699 18.0001 8.16699C18.7212 8.16699 19.1134 9.34547 19.8978 11.7024L20.3775 13.144C20.5973 13.8044 20.7072 14.1346 20.9691 14.3235C21.2311 14.5124 21.5791 14.5124 22.2752 14.5124H23.7239C26.3032 14.5124 27.5929 14.5124 27.8148 15.2088C28.0367 15.9052 26.9848 16.6514 24.8811 18.1437L23.792 18.9162C23.2098 19.3293 22.9187 19.5358 22.816 19.8494C22.7134 20.1631 22.8261 20.5017 23.0515 21.179L23.4868 22.4871C24.2826 24.8786 24.6806 26.0743 24.098 26.5058C23.5155 26.9373 22.4877 26.2081 20.432 24.7499L19.1573 23.8457C18.5983 23.4491 18.3188 23.2509 18.0001 23.2509C17.6814 23.2509 17.4019 23.4491 16.8429 23.8457L15.5682 24.7499C13.5125 26.2081 12.4847 26.9373 11.9022 26.5058C11.3196 26.0743 11.7176 24.8786 12.5134 22.4871L12.9487 21.179C13.1741 20.5017 13.2868 20.1631 13.1842 19.8494C13.0815 19.5358 12.7904 19.3293 12.2082 18.9162L11.1191 18.1437C9.01536 16.6514 7.96348 15.9052 8.18539 15.2088C8.40731 14.5124 9.69696 14.5124 12.2763 14.5124H13.725C14.4211 14.5124 14.7691 14.5124 15.0311 14.3235C15.293 14.1346 15.4029 13.8044 15.6227 13.144L16.1024 11.7024Z" fill="currentColor"/>
</svg>
