<svg width="36" height="36" viewBox="0 0 36 36" fill="none" xmlns="http://www.w3.org/2000/svg">
<path d="M23 15.5L22.4156 20.4674C22.2178 22.1485 22.1189 22.9891 21.5505 23.4946C20.9821 24 20.1358 24 18.443 24H17.557C15.8642 24 15.0179 24 14.4495 23.4946C13.8811 22.9891 13.7822 22.1485 13.5844 20.4674L13 15.5" stroke="currentColor" stroke-width="2"/>
<path d="M25 13H11" stroke="currentColor" stroke-width="2"/>
<path d="M21 13L20.6325 11.8974C20.4635 11.3904 20.379 11.1369 20.249 10.9314C19.9731 10.4948 19.539 10.182 19.0377 10.0583C18.8016 10 18.5344 10 18 10V10C17.4656 10 17.1984 10 16.9623 10.0583C16.461 10.182 16.0269 10.4948 15.751 10.9314C15.621 11.1369 15.5365 11.3904 15.3675 11.8974L15 13" stroke="currentColor" stroke-width="2"/>
</svg>
