<svg width="36" height="36" viewBox="0 0 36 36" fill="none" xmlns="http://www.w3.org/2000/svg">
<g opacity="0.2">
<path fill-rule="evenodd" clip-rule="evenodd" d="M24 19.4144L27.5858 22.9142L29 21.5L25.4142 18.0002L29 14.5L27.5858 13.0858L24 16.586L20.4142 13.0858L19 14.5L21.5612 17H13.1825C12.9341 16.6916 12.5804 16.3379 12.1214 15.8788C11.1214 14.8788 10.6214 14.3788 10 14.3788C9.37872 14.3788 8.87872 14.8788 7.87872 15.8788C6.87872 16.8788 6.37872 17.3788 6.37872 18.0001C6.37872 18.6214 6.87872 19.1214 7.87872 20.1214C8.87872 21.1214 9.37872 21.6214 10 21.6214C10.6214 21.6214 11.1214 21.1214 12.1214 20.1214C12.5805 19.6622 12.9343 19.3085 13.1826 19H21.5614L19 21.5L20.4142 22.9142L24 19.4144Z" fill="black"/>
</g>
</svg>
