<svg width="36" height="36" viewBox="0 0 36 36" fill="none" xmlns="http://www.w3.org/2000/svg">
<path fill-rule="evenodd" clip-rule="evenodd" d="M8.92892 18C8.92892 18.8285 9.59559 19.4951 10.9289 20.8285L15.1716 25.0711C16.5049 26.4044 17.1716 27.0711 18 27.0711C18.8284 27.0711 19.4951 26.4044 20.8284 25.0711L25.0711 20.8285L25.0711 20.8284C26.4044 19.4951 27.0711 18.8284 27.0711 18C27.0711 17.1716 26.4044 16.5049 25.0711 15.1716L25.0711 15.1716L20.8284 10.929C19.4951 9.59562 18.8284 8.92896 18 8.92896C17.1716 8.92896 16.5049 9.59562 15.1716 10.929L10.9289 15.1716C9.59559 16.5049 8.92892 17.1716 8.92892 18ZM20.4394 21.8537L18 19.4143L15.5606 21.8536L14.1464 20.4394L16.5858 18.0001L14.1462 15.5605L15.5604 14.1463L18 16.5859L20.4397 14.1462L21.8539 15.5604L19.4142 18.0001L21.8537 20.4395L20.4394 21.8537Z" fill="#DD0000"/>
</svg>
