<svg width="36" height="36" viewBox="0 0 36 36" fill="none" xmlns="http://www.w3.org/2000/svg">
<path d="M9.49991 11.5859L8.08569 13.0002L13.0857 18.0002L8.08569 23.0002L9.49991 24.4144L15.9141 18.0002L9.49991 11.5859Z" fill="black"/>
<path d="M17.6716 18.0002C17.6716 18.8286 18.3383 19.4952 19.6716 20.8286C21.0049 22.1619 21.6716 22.8286 22.5 22.8286C23.3284 22.8286 23.9951 22.1619 25.3284 20.8286C26.6618 19.4952 27.3284 18.8286 27.3284 18.0002C27.3284 17.1717 26.6618 16.5051 25.3284 15.1717C23.9951 13.8384 23.3284 13.1717 22.5 13.1717C21.6716 13.1717 21.0049 13.8384 19.6716 15.1717C18.3383 16.5051 17.6716 17.1717 17.6716 18.0002Z" fill="black"/>
</svg>
