<svg width="36" height="36" viewBox="0 0 36 36" fill="none" xmlns="http://www.w3.org/2000/svg">
<path d="M27.911 13.0002L26.4968 11.5859L20.0826 18.0002L26.4968 24.4144L27.911 23.0002L22.911 18.0002L27.911 13.0002Z" fill="black"/>
<path d="M8.66846 18.0002C8.66846 18.8286 9.33512 19.4952 10.6685 20.8286C12.0018 22.1619 12.6685 22.8286 13.4969 22.8286C14.3253 22.8286 14.992 22.1619 16.3253 20.8286C17.6586 19.4952 18.3253 18.8286 18.3253 18.0002C18.3253 17.1717 17.6586 16.5051 16.3253 15.1717C14.992 13.8384 14.3253 13.1717 13.4969 13.1717C12.6685 13.1717 12.0018 13.8384 10.6685 15.1717C9.33512 16.5051 8.66846 17.1717 8.66846 18.0002Z" fill="black"/>
</svg>
