<svg viewBox="0 0 32 32" fill="none" xmlns="http://www.w3.org/2000/svg">
<path opacity="0.4" fill-rule="evenodd" clip-rule="evenodd" d="M16 6C20.9706 6 25 10.0294 25 15C25 18.1428 23.3891 20.9094 20.9479 22.519L22.7295 26.277C23.0252 26.9008 22.7593 27.6463 22.1355 27.942C21.5117 28.2377 20.7662 27.9718 20.4705 27.348L18.6895 23.5913C17.8402 23.8569 16.9368 24 16 24C11.0294 24 7 19.9706 7 15C7 10.0294 11.0294 6 16 6Z" fill="black"/>
<path fill-rule="evenodd" clip-rule="evenodd" d="M16.8536 11.1464C17 11.2929 17 11.5286 17 12V14H19C19.4714 14 19.7071 14 19.8536 14.1464C20 14.2929 20 14.5286 20 15C20 15.4714 20 15.7071 19.8536 15.8536C19.7071 16 19.4714 16 19 16H17V18C17 18.4714 17 18.7071 16.8536 18.8536C16.7071 19 16.4714 19 16 19C15.5286 19 15.2929 19 15.1464 18.8536C15 18.7071 15 18.4714 15 18V16H13C12.5286 16 12.2929 16 12.1464 15.8536C12 15.7071 12 15.4714 12 15C12 14.5286 12 14.2929 12.1464 14.1464C12.2929 14 12.5286 14 13 14H15V12C15 11.5286 15 11.2929 15.1464 11.1464C15.2929 11 15.5286 11 16 11C16.4714 11 16.7071 11 16.8536 11.1464Z" fill="white"/>
</svg>
